<?xml version="1.0" standalone="no"?>
<!DOCTYPE svg PUBLIC "-//W3C//DTD SVG 20010904//EN"
 "http://www.w3.org/TR/2001/REC-SVG-20010904/DTD/svg10.dtd">
<svg version="1.0" xmlns="http://www.w3.org/2000/svg"
 width="142.000000pt" height="142.000000pt" viewBox="0 0 142.000000 142.000000"
 preserveAspectRatio="xMidYMid meet">
<metadata>
Created by potrace 1.14, written by Peter Selinger 2001-2017
</metadata>
<g transform="translate(0.000000,142.000000) scale(0.100000,-0.100000)"
fill="#000000" stroke="none">
<path d="M831 1170 c-8 -4 -2 -9 17 -13 44 -9 79 -60 86 -127 4 -35 1 -63 -7
-76 -6 -12 -22 -40 -35 -63 -12 -22 -29 -41 -37 -41 -8 0 -15 -5 -15 -11 0 -6
-24 -36 -54 -67 -49 -52 -54 -61 -54 -105 l-1 -48 27 19 c15 11 33 17 41 14 7
-2 16 0 20 5 3 5 25 20 48 33 24 13 46 33 49 44 4 11 15 32 24 46 38 53 49
232 19 305 -22 56 -96 105 -128 85z"/>
<path d="M486 1140 c-24 -21 -38 -45 -46 -79 -17 -70 -19 -102 -9 -128 5 -13
5 -23 0 -23 -16 0 15 -104 44 -150 16 -25 29 -48 28 -51 -3 -9 87 -52 112 -54
6 0 24 -10 41 -22 l30 -22 -4 57 c-3 43 -10 60 -25 71 -21 15 -33 26 -74 72
-12 13 -27 29 -34 35 -72 73 -88 124 -74 231 6 45 42 78 80 75 16 -1 17 1 5 8
-24 15 -37 12 -74 -20z"/>
<path d="M921 655 c-13 -19 -27 -33 -31 -32 -4 1 -17 -9 -29 -23 -13 -14 -20
-19 -16 -12 4 7 0 12 -10 12 -21 0 -24 -11 -28 -102 -2 -43 -7 -81 -10 -85 -4
-3 -7 -25 -6 -47 l1 -41 14 50 c7 28 12 56 9 63 -5 14 23 112 32 112 3 0 2
-17 -1 -37 l-6 -38 25 48 c28 51 40 62 25 21 -16 -40 -11 -51 10 -24 23 29 53
121 48 150 -3 17 -6 15 -27 -15z"/>
<path d="M474 631 c4 -24 12 -53 19 -65 6 -11 12 -28 13 -37 1 -18 84 -192 89
-187 2 2 -1 26 -7 53 -5 28 -11 59 -13 70 -2 11 -11 29 -19 40 -14 19 -15 17
-6 -15 15 -51 11 -60 -7 -20 -9 19 -18 51 -19 70 -4 64 -13 94 -35 114 l-21
21 6 -44z"/>
<path d="M530 623 c0 -28 20 -92 30 -98 14 -9 -1 87 -16 103 -12 11 -14 11
-14 -5z"/>
<path d="M576 573 c7 -42 24 -81 38 -86 9 -4 11 2 8 19 -2 13 -8 24 -13 24 -5
0 -9 7 -9 15 0 8 5 15 10 15 6 0 10 -4 10 -10 0 -5 4 -10 9 -10 16 0 6 29 -15
45 -30 23 -43 18 -38 -12z"/>
<path d="M763 569 c-31 -20 -32 -23 -29 -75 2 -30 6 -58 10 -61 6 -7 8 1 11
60 1 20 5 38 10 40 13 3 11 -104 -2 -143 l-12 -35 -1 29 c0 46 -9 25 -14 -35
-3 -30 -1 -60 3 -67 10 -17 40 85 47 160 4 46 11 148 9 148 0 0 -15 -10 -32
-21z"/>
<path d="M650 548 c1 -39 17 -109 28 -120 7 -7 9 0 8 21 -1 17 2 27 6 23 5 -5
11 -46 14 -92 3 -46 8 -87 11 -90 3 -3 3 25 0 62 -3 46 -1 66 6 61 5 -3 8 -2
4 3 -3 5 -6 32 -8 59 -4 79 -16 96 -37 53 -11 -23 -11 -23 -11 4 -1 15 -5 30
-11 33 -6 3 -10 -4 -10 -17z"/>
<path d="M875 473 c-12 -28 -14 -63 -5 -63 10 0 25 68 17 76 -2 3 -8 -3 -12
-13z"/>
<path d="M600 460 c0 -28 34 -146 46 -159 10 -12 12 -9 9 15 -2 16 -5 50 -6
76 -2 51 -18 92 -19 48 0 -19 -2 -22 -9 -10 -6 8 -8 17 -5 21 2 4 0 10 -6 14
-5 3 -10 1 -10 -5z"/>
<path d="M841 452 c-13 -24 -22 -97 -10 -85 9 9 30 95 24 101 -2 2 -8 -5 -14
-16z"/>
<path d="M665 385 c2 -22 5 -52 5 -67 0 -16 3 -28 8 -28 11 0 6 82 -7 110 -10
23 -11 21 -6 -15z"/>
</g>
</svg>
