<svg width="25" height="20" viewBox="0 0 25 20" fill="none" xmlns="http://www.w3.org/2000/svg">
<path d="M1 9C0.447715 9 0 9.44772 0 10C0 10.5523 0.447715 11 1 11V9ZM23 10L23.7071 10.7071L24.4142 10L23.7071 9.29289L23 10ZM14.7071 0.292893C14.3166 -0.0976311 13.6834 -0.0976311 13.2929 0.292893C12.9024 0.683418 12.9024 1.31658 13.2929 1.70711L14.7071 0.292893ZM13.2929 18.2929C12.9024 18.6834 12.9024 19.3166 13.2929 19.7071C13.6834 20.0976 14.3166 20.0976 14.7071 19.7071L13.2929 18.2929ZM1 11H23V9H1V11ZM13.2929 1.70711L22.2929 10.7071L23.7071 9.29289L14.7071 0.292893L13.2929 1.70711ZM22.2929 9.29289L13.2929 18.2929L14.7071 19.7071L23.7071 10.7071L22.2929 9.29289Z" fill="black"/>
</svg>
