<svg width="15" height="16" viewBox="0 0 15 16" fill="none" xmlns="http://www.w3.org/2000/svg">
<g clip-path="url(#clip0)">
<path d="M12.8088 5.48001L6.84625 1.10501C6.38056 0.763998 5.82951 0.558629 5.25423 0.511672C4.67894 0.464715 4.10189 0.578005 3.58706 0.838981C3.07223 1.09996 2.63974 1.49842 2.33754 1.99019C2.03534 2.48195 1.87524 3.04781 1.875 3.62501V12.375C1.8751 12.9525 2.03521 13.5186 2.33755 14.0106C2.63989 14.5026 3.07263 14.9012 3.58776 15.1621C4.10289 15.4231 4.68026 15.5362 5.25578 15.489C5.8313 15.4417 6.38247 15.2359 6.84812 14.8944L12.8106 10.5194C13.2064 10.2291 13.5283 9.84973 13.7501 9.41192C13.972 8.97411 14.0876 8.49019 14.0876 7.99938C14.0876 7.50857 13.972 7.02466 13.7501 6.58684C13.5283 6.14903 13.2064 5.76963 12.8106 5.47938L12.8088 5.48001ZM12.0687 9.51126L6.10625 13.8863C5.82688 14.0904 5.49648 14.2133 5.15161 14.2412C4.80674 14.2692 4.46085 14.2012 4.15223 14.0448C3.84361 13.8883 3.5843 13.6495 3.403 13.3548C3.2217 13.0601 3.12549 12.721 3.125 12.375V3.62501C3.12153 3.27835 3.21593 2.93775 3.39736 2.64233C3.57879 2.34692 3.83987 2.10869 4.15062 1.95501C4.41493 1.82056 4.70721 1.75033 5.00375 1.75001C5.40118 1.75153 5.78764 1.88056 6.10625 2.11813L12.0687 6.49313C12.3059 6.66732 12.4988 6.89488 12.6317 7.15742C12.7646 7.41997 12.8339 7.71011 12.8339 8.00438C12.8339 8.29866 12.7646 8.5888 12.6317 8.85134C12.4988 9.11388 12.3059 9.34145 12.0687 9.51563V9.51126Z" fill="#8D0019"/>
</g>
<defs>
<clipPath id="clip0">
<rect width="15" height="15" fill="white" transform="translate(0 0.5)"/>
</clipPath>
</defs>
</svg>
